<?xml version="1.0" encoding="utf-8" standalone="no"?>
<!DOCTYPE svg PUBLIC "-//W3C//DTD SVG 1.1//EN"
  "http://www.w3.org/Graphics/SVG/1.1/DTD/svg11.dtd">
<svg xmlns:xlink="http://www.w3.org/1999/xlink" width="460.8pt" height="345.6pt" viewBox="0 0 460.8 345.6" xmlns="http://www.w3.org/2000/svg" version="1.1">
 <metadata>
  <rdf:RDF xmlns:dc="http://purl.org/dc/elements/1.1/" xmlns:cc="http://creativecommons.org/ns#" xmlns:rdf="http://www.w3.org/1999/02/22-rdf-syntax-ns#">
   <cc:Work>
    <dc:type rdf:resource="http://purl.org/dc/dcmitype/StillImage"/>
    <dc:date>2023-05-23T10:10:59.795248</dc:date>
    <dc:format>image/svg+xml</dc:format>
    <dc:creator>
     <cc:Agent>
      <dc:title>Matplotlib v3.7.1, https://matplotlib.org/</dc:title>
     </cc:Agent>
    </dc:creator>
   </cc:Work>
  </rdf:RDF>
 </metadata>
 <defs>
  <style type="text/css">*{stroke-linejoin: round; stroke-linecap: butt}</style>
 </defs>
 <g id="figure_1">
  <g id="patch_1">
   <path d="M 0 345.6 
L 460.8 345.6 
L 460.8 0 
L 0 0 
z
" style="fill: #ffffff"/>
  </g>
  <g id="axes_1">
   <g id="patch_2">
    <path d="M 56.18 303.64 
L 354.91 303.64 
L 354.91 10.8 
L 56.18 10.8 
z
" style="fill: #ffffff"/>
   </g>
   <g id="matplotlib.axis_1">
    <g id="xtick_1">
     <g id="line2d_1">
      <defs>
       <path id="m2a7eb615c8" d="M 0 0 
L 0 3.5 
" style="stroke: #000000; stroke-width: 0.8"/>
      </defs>
      <g>
       <use xlink:href="#m2a7eb615c8" x="75.662391" y="303.64" style="stroke: #000000; stroke-width: 0.8"/>
      </g>
     </g>
     <g id="text_1">
      <!-- 0 -->
      <g transform="translate(72.481141 318.238437) scale(0.1 -0.1)">
       <defs>
        <path id="DejaVuSans-30" d="M 2034 4250 
Q 1547 4250 1301 3770 
Q 1056 3291 1056 2328 
Q 1056 1369 1301 889 
Q 1547 409 2034 409 
Q 2525 409 2770 889 
Q 3016 1369 3016 2328 
Q 3016 3291 2770 3770 
Q 2525 4250 2034 4250 
z
M 2034 4750 
Q 2819 4750 3233 4129 
Q 3647 3509 3647 2328 
Q 3647 1150 3233 529 
Q 2819 -91 2034 -91 
Q 1250 -91 836 529 
Q 422 1150 422 2328 
Q 422 3509 836 4129 
Q 1250 4750 2034 4750 
z
" transform="scale(0.015625)"/>
       </defs>
       <use xlink:href="#DejaVuSans-30"/>
      </g>
     </g>
    </g>
    <g id="xtick_2">
     <g id="line2d_2">
      <g>
       <use xlink:href="#m2a7eb615c8" x="134.699941" y="303.64" style="stroke: #000000; stroke-width: 0.8"/>
      </g>
     </g>
     <g id="text_2">
      <!-- 10 -->
      <g transform="translate(128.337441 318.238437) scale(0.1 -0.1)">
       <defs>
        <path id="DejaVuSans-31" d="M 794 531 
L 1825 531 
L 1825 4091 
L 703 3866 
L 703 4441 
L 1819 4666 
L 2450 4666 
L 2450 531 
L 3481 531 
L 3481 0 
L 794 0 
L 794 531 
z
" transform="scale(0.015625)"/>
       </defs>
       <use xlink:href="#DejaVuSans-31"/>
       <use xlink:href="#DejaVuSans-30" x="63.623047"/>
      </g>
     </g>
    </g>
    <g id="xtick_3">
     <g id="line2d_3">
      <g>
       <use xlink:href="#m2a7eb615c8" x="193.73749" y="303.64" style="stroke: #000000; stroke-width: 0.8"/>
      </g>
     </g>
     <g id="text_3">
      <!-- 20 -->
      <g transform="translate(187.37499 318.238437) scale(0.1 -0.1)">
       <defs>
        <path id="DejaVuSans-32" d="M 1228 531 
L 3431 531 
L 3431 0 
L 469 0 
L 469 531 
Q 828 903 1448 1529 
Q 2069 2156 2228 2338 
Q 2531 2678 2651 2914 
Q 2772 3150 2772 3378 
Q 2772 3750 2511 3984 
Q 2250 4219 1831 4219 
Q 1534 4219 1204 4116 
Q 875 4013 500 3803 
L 500 4441 
Q 881 4594 1212 4672 
Q 1544 4750 1819 4750 
Q 2544 4750 2975 4387 
Q 3406 4025 3406 3419 
Q 3406 3131 3298 2873 
Q 3191 2616 2906 2266 
Q 2828 2175 2409 1742 
Q 1991 1309 1228 531 
z
" transform="scale(0.015625)"/>
       </defs>
       <use xlink:href="#DejaVuSans-32"/>
       <use xlink:href="#DejaVuSans-30" x="63.623047"/>
      </g>
     </g>
    </g>
    <g id="xtick_4">
     <g id="line2d_4">
      <g>
       <use xlink:href="#m2a7eb615c8" x="252.77504" y="303.64" style="stroke: #000000; stroke-width: 0.8"/>
      </g>
     </g>
     <g id="text_4">
      <!-- 30 -->
      <g transform="translate(246.41254 318.238437) scale(0.1 -0.1)">
       <defs>
        <path id="DejaVuSans-33" d="M 2597 2516 
Q 3050 2419 3304 2112 
Q 3559 1806 3559 1356 
Q 3559 666 3084 287 
Q 2609 -91 1734 -91 
Q 1441 -91 1130 -33 
Q 819 25 488 141 
L 488 750 
Q 750 597 1062 519 
Q 1375 441 1716 441 
Q 2309 441 2620 675 
Q 2931 909 2931 1356 
Q 2931 1769 2642 2001 
Q 2353 2234 1838 2234 
L 1294 2234 
L 1294 2753 
L 1863 2753 
Q 2328 2753 2575 2939 
Q 2822 3125 2822 3475 
Q 2822 3834 2567 4026 
Q 2313 4219 1838 4219 
Q 1578 4219 1281 4162 
Q 984 4106 628 3988 
L 628 4550 
Q 988 4650 1302 4700 
Q 1616 4750 1894 4750 
Q 2613 4750 3031 4423 
Q 3450 4097 3450 3541 
Q 3450 3153 3228 2886 
Q 3006 2619 2597 2516 
z
" transform="scale(0.015625)"/>
       </defs>
       <use xlink:href="#DejaVuSans-33"/>
       <use xlink:href="#DejaVuSans-30" x="63.623047"/>
      </g>
     </g>
    </g>
    <g id="xtick_5">
     <g id="line2d_5">
      <g>
       <use xlink:href="#m2a7eb615c8" x="311.812589" y="303.64" style="stroke: #000000; stroke-width: 0.8"/>
      </g>
     </g>
     <g id="text_5">
      <!-- 40 -->
      <g transform="translate(305.450089 318.238437) scale(0.1 -0.1)">
       <defs>
        <path id="DejaVuSans-34" d="M 2419 4116 
L 825 1625 
L 2419 1625 
L 2419 4116 
z
M 2253 4666 
L 3047 4666 
L 3047 1625 
L 3713 1625 
L 3713 1100 
L 3047 1100 
L 3047 0 
L 2419 0 
L 2419 1100 
L 313 1100 
L 313 1709 
L 2253 4666 
z
" transform="scale(0.015625)"/>
       </defs>
       <use xlink:href="#DejaVuSans-34"/>
       <use xlink:href="#DejaVuSans-30" x="63.623047"/>
      </g>
     </g>
    </g>
    <g id="text_6">
     <!-- Epoch -->
     <g transform="translate(190.234062 331.916562) scale(0.1 -0.1)">
      <defs>
       <path id="DejaVuSans-45" d="M 628 4666 
L 3578 4666 
L 3578 4134 
L 1259 4134 
L 1259 2753 
L 3481 2753 
L 3481 2222 
L 1259 2222 
L 1259 531 
L 3634 531 
L 3634 0 
L 628 0 
L 628 4666 
z
" transform="scale(0.015625)"/>
       <path id="DejaVuSans-70" d="M 1159 525 
L 1159 -1331 
L 581 -1331 
L 581 3500 
L 1159 3500 
L 1159 2969 
Q 1341 3281 1617 3432 
Q 1894 3584 2278 3584 
Q 2916 3584 3314 3078 
Q 3713 2572 3713 1747 
Q 3713 922 3314 415 
Q 2916 -91 2278 -91 
Q 1894 -91 1617 61 
Q 1341 213 1159 525 
z
M 3116 1747 
Q 3116 2381 2855 2742 
Q 2594 3103 2138 3103 
Q 1681 3103 1420 2742 
Q 1159 2381 1159 1747 
Q 1159 1113 1420 752 
Q 1681 391 2138 391 
Q 2594 391 2855 752 
Q 3116 1113 3116 1747 
z
" transform="scale(0.015625)"/>
       <path id="DejaVuSans-6f" d="M 1959 3097 
Q 1497 3097 1228 2736 
Q 959 2375 959 1747 
Q 959 1119 1226 758 
Q 1494 397 1959 397 
Q 2419 397 2687 759 
Q 2956 1122 2956 1747 
Q 2956 2369 2687 2733 
Q 2419 3097 1959 3097 
z
M 1959 3584 
Q 2709 3584 3137 3096 
Q 3566 2609 3566 1747 
Q 3566 888 3137 398 
Q 2709 -91 1959 -91 
Q 1206 -91 779 398 
Q 353 888 353 1747 
Q 353 2609 779 3096 
Q 1206 3584 1959 3584 
z
" transform="scale(0.015625)"/>
       <path id="DejaVuSans-63" d="M 3122 3366 
L 3122 2828 
Q 2878 2963 2633 3030 
Q 2388 3097 2138 3097 
Q 1578 3097 1268 2742 
Q 959 2388 959 1747 
Q 959 1106 1268 751 
Q 1578 397 2138 397 
Q 2388 397 2633 464 
Q 2878 531 3122 666 
L 3122 134 
Q 2881 22 2623 -34 
Q 2366 -91 2075 -91 
Q 1284 -91 818 406 
Q 353 903 353 1747 
Q 353 2603 823 3093 
Q 1294 3584 2113 3584 
Q 2378 3584 2631 3529 
Q 2884 3475 3122 3366 
z
" transform="scale(0.015625)"/>
       <path id="DejaVuSans-68" d="M 3513 2113 
L 3513 0 
L 2938 0 
L 2938 2094 
Q 2938 2591 2744 2837 
Q 2550 3084 2163 3084 
Q 1697 3084 1428 2787 
Q 1159 2491 1159 1978 
L 1159 0 
L 581 0 
L 581 4863 
L 1159 4863 
L 1159 2956 
Q 1366 3272 1645 3428 
Q 1925 3584 2291 3584 
Q 2894 3584 3203 3211 
Q 3513 2838 3513 2113 
z
" transform="scale(0.015625)"/>
      </defs>
      <use xlink:href="#DejaVuSans-45"/>
      <use xlink:href="#DejaVuSans-70" x="63.183594"/>
      <use xlink:href="#DejaVuSans-6f" x="126.660156"/>
      <use xlink:href="#DejaVuSans-63" x="187.841797"/>
      <use xlink:href="#DejaVuSans-68" x="242.822266"/>
     </g>
    </g>
   </g>
   <g id="matplotlib.axis_2">
    <g id="ytick_1">
     <g id="line2d_6">
      <defs>
       <path id="mb611d21e12" d="M 0 0 
L -3.5 0 
" style="stroke: #000000; stroke-width: 0.8"/>
      </defs>
      <g>
       <use xlink:href="#mb611d21e12" x="56.18" y="285.059326" style="stroke: #000000; stroke-width: 0.8"/>
      </g>
     </g>
     <g id="text_7">
      <!-- −0.4 -->
      <g transform="translate(24.897188 288.858545) scale(0.1 -0.1)">
       <defs>
        <path id="DejaVuSans-2212" d="M 678 2272 
L 4684 2272 
L 4684 1741 
L 678 1741 
L 678 2272 
z
" transform="scale(0.015625)"/>
        <path id="DejaVuSans-2e" d="M 684 794 
L 1344 794 
L 1344 0 
L 684 0 
L 684 794 
z
" transform="scale(0.015625)"/>
       </defs>
       <use xlink:href="#DejaVuSans-2212"/>
       <use xlink:href="#DejaVuSans-30" x="83.789062"/>
       <use xlink:href="#DejaVuSans-2e" x="147.412109"/>
       <use xlink:href="#DejaVuSans-34" x="179.199219"/>
      </g>
     </g>
    </g>
    <g id="ytick_2">
     <g id="line2d_7">
      <g>
       <use xlink:href="#mb611d21e12" x="56.18" y="241.939285" style="stroke: #000000; stroke-width: 0.8"/>
      </g>
     </g>
     <g id="text_8">
      <!-- −0.2 -->
      <g transform="translate(24.897188 245.738504) scale(0.1 -0.1)">
       <use xlink:href="#DejaVuSans-2212"/>
       <use xlink:href="#DejaVuSans-30" x="83.789062"/>
       <use xlink:href="#DejaVuSans-2e" x="147.412109"/>
       <use xlink:href="#DejaVuSans-32" x="179.199219"/>
      </g>
     </g>
    </g>
    <g id="ytick_3">
     <g id="line2d_8">
      <g>
       <use xlink:href="#mb611d21e12" x="56.18" y="198.819244" style="stroke: #000000; stroke-width: 0.8"/>
      </g>
     </g>
     <g id="text_9">
      <!-- 0.0 -->
      <g transform="translate(33.276875 202.618462) scale(0.1 -0.1)">
       <use xlink:href="#DejaVuSans-30"/>
       <use xlink:href="#DejaVuSans-2e" x="63.623047"/>
       <use xlink:href="#DejaVuSans-30" x="95.410156"/>
      </g>
     </g>
    </g>
    <g id="ytick_4">
     <g id="line2d_9">
      <g>
       <use xlink:href="#mb611d21e12" x="56.18" y="155.699202" style="stroke: #000000; stroke-width: 0.8"/>
      </g>
     </g>
     <g id="text_10">
      <!-- 0.2 -->
      <g transform="translate(33.276875 159.498421) scale(0.1 -0.1)">
       <use xlink:href="#DejaVuSans-30"/>
       <use xlink:href="#DejaVuSans-2e" x="63.623047"/>
       <use xlink:href="#DejaVuSans-32" x="95.410156"/>
      </g>
     </g>
    </g>
    <g id="ytick_5">
     <g id="line2d_10">
      <g>
       <use xlink:href="#mb611d21e12" x="56.18" y="112.579161" style="stroke: #000000; stroke-width: 0.8"/>
      </g>
     </g>
     <g id="text_11">
      <!-- 0.4 -->
      <g transform="translate(33.276875 116.378379) scale(0.1 -0.1)">
       <use xlink:href="#DejaVuSans-30"/>
       <use xlink:href="#DejaVuSans-2e" x="63.623047"/>
       <use xlink:href="#DejaVuSans-34" x="95.410156"/>
      </g>
     </g>
    </g>
    <g id="ytick_6">
     <g id="line2d_11">
      <g>
       <use xlink:href="#mb611d21e12" x="56.18" y="69.459119" style="stroke: #000000; stroke-width: 0.8"/>
      </g>
     </g>
     <g id="text_12">
      <!-- 0.6 -->
      <g transform="translate(33.276875 73.258338) scale(0.1 -0.1)">
       <defs>
        <path id="DejaVuSans-36" d="M 2113 2584 
Q 1688 2584 1439 2293 
Q 1191 2003 1191 1497 
Q 1191 994 1439 701 
Q 1688 409 2113 409 
Q 2538 409 2786 701 
Q 3034 994 3034 1497 
Q 3034 2003 2786 2293 
Q 2538 2584 2113 2584 
z
M 3366 4563 
L 3366 3988 
Q 3128 4100 2886 4159 
Q 2644 4219 2406 4219 
Q 1781 4219 1451 3797 
Q 1122 3375 1075 2522 
Q 1259 2794 1537 2939 
Q 1816 3084 2150 3084 
Q 2853 3084 3261 2657 
Q 3669 2231 3669 1497 
Q 3669 778 3244 343 
Q 2819 -91 2113 -91 
Q 1303 -91 875 529 
Q 447 1150 447 2328 
Q 447 3434 972 4092 
Q 1497 4750 2381 4750 
Q 2619 4750 2861 4703 
Q 3103 4656 3366 4563 
z
" transform="scale(0.015625)"/>
       </defs>
       <use xlink:href="#DejaVuSans-30"/>
       <use xlink:href="#DejaVuSans-2e" x="63.623047"/>
       <use xlink:href="#DejaVuSans-36" x="95.410156"/>
      </g>
     </g>
    </g>
    <g id="ytick_7">
     <g id="line2d_12">
      <g>
       <use xlink:href="#mb611d21e12" x="56.18" y="26.339078" style="stroke: #000000; stroke-width: 0.8"/>
      </g>
     </g>
     <g id="text_13">
      <!-- 0.8 -->
      <g transform="translate(33.276875 30.138296) scale(0.1 -0.1)">
       <defs>
        <path id="DejaVuSans-38" d="M 2034 2216 
Q 1584 2216 1326 1975 
Q 1069 1734 1069 1313 
Q 1069 891 1326 650 
Q 1584 409 2034 409 
Q 2484 409 2743 651 
Q 3003 894 3003 1313 
Q 3003 1734 2745 1975 
Q 2488 2216 2034 2216 
z
M 1403 2484 
Q 997 2584 770 2862 
Q 544 3141 544 3541 
Q 544 4100 942 4425 
Q 1341 4750 2034 4750 
Q 2731 4750 3128 4425 
Q 3525 4100 3525 3541 
Q 3525 3141 3298 2862 
Q 3072 2584 2669 2484 
Q 3125 2378 3379 2068 
Q 3634 1759 3634 1313 
Q 3634 634 3220 271 
Q 2806 -91 2034 -91 
Q 1263 -91 848 271 
Q 434 634 434 1313 
Q 434 1759 690 2068 
Q 947 2378 1403 2484 
z
M 1172 3481 
Q 1172 3119 1398 2916 
Q 1625 2713 2034 2713 
Q 2441 2713 2670 2916 
Q 2900 3119 2900 3481 
Q 2900 3844 2670 4047 
Q 2441 4250 2034 4250 
Q 1625 4250 1398 4047 
Q 1172 3844 1172 3481 
z
" transform="scale(0.015625)"/>
       </defs>
       <use xlink:href="#DejaVuSans-30"/>
       <use xlink:href="#DejaVuSans-2e" x="63.623047"/>
       <use xlink:href="#DejaVuSans-38" x="95.410156"/>
      </g>
     </g>
    </g>
    <g id="text_14">
     <!-- Spearman Correlation -->
     <g transform="translate(18.8175 211.937969) rotate(-90) scale(0.1 -0.1)">
      <defs>
       <path id="DejaVuSans-53" d="M 3425 4513 
L 3425 3897 
Q 3066 4069 2747 4153 
Q 2428 4238 2131 4238 
Q 1616 4238 1336 4038 
Q 1056 3838 1056 3469 
Q 1056 3159 1242 3001 
Q 1428 2844 1947 2747 
L 2328 2669 
Q 3034 2534 3370 2195 
Q 3706 1856 3706 1288 
Q 3706 609 3251 259 
Q 2797 -91 1919 -91 
Q 1588 -91 1214 -16 
Q 841 59 441 206 
L 441 856 
Q 825 641 1194 531 
Q 1563 422 1919 422 
Q 2459 422 2753 634 
Q 3047 847 3047 1241 
Q 3047 1584 2836 1778 
Q 2625 1972 2144 2069 
L 1759 2144 
Q 1053 2284 737 2584 
Q 422 2884 422 3419 
Q 422 4038 858 4394 
Q 1294 4750 2059 4750 
Q 2388 4750 2728 4690 
Q 3069 4631 3425 4513 
z
" transform="scale(0.015625)"/>
       <path id="DejaVuSans-65" d="M 3597 1894 
L 3597 1613 
L 953 1613 
Q 991 1019 1311 708 
Q 1631 397 2203 397 
Q 2534 397 2845 478 
Q 3156 559 3463 722 
L 3463 178 
Q 3153 47 2828 -22 
Q 2503 -91 2169 -91 
Q 1331 -91 842 396 
Q 353 884 353 1716 
Q 353 2575 817 3079 
Q 1281 3584 2069 3584 
Q 2775 3584 3186 3129 
Q 3597 2675 3597 1894 
z
M 3022 2063 
Q 3016 2534 2758 2815 
Q 2500 3097 2075 3097 
Q 1594 3097 1305 2825 
Q 1016 2553 972 2059 
L 3022 2063 
z
" transform="scale(0.015625)"/>
       <path id="DejaVuSans-61" d="M 2194 1759 
Q 1497 1759 1228 1600 
Q 959 1441 959 1056 
Q 959 750 1161 570 
Q 1363 391 1709 391 
Q 2188 391 2477 730 
Q 2766 1069 2766 1631 
L 2766 1759 
L 2194 1759 
z
M 3341 1997 
L 3341 0 
L 2766 0 
L 2766 531 
Q 2569 213 2275 61 
Q 1981 -91 1556 -91 
Q 1019 -91 701 211 
Q 384 513 384 1019 
Q 384 1609 779 1909 
Q 1175 2209 1959 2209 
L 2766 2209 
L 2766 2266 
Q 2766 2663 2505 2880 
Q 2244 3097 1772 3097 
Q 1472 3097 1187 3025 
Q 903 2953 641 2809 
L 641 3341 
Q 956 3463 1253 3523 
Q 1550 3584 1831 3584 
Q 2591 3584 2966 3190 
Q 3341 2797 3341 1997 
z
" transform="scale(0.015625)"/>
       <path id="DejaVuSans-72" d="M 2631 2963 
Q 2534 3019 2420 3045 
Q 2306 3072 2169 3072 
Q 1681 3072 1420 2755 
Q 1159 2438 1159 1844 
L 1159 0 
L 581 0 
L 581 3500 
L 1159 3500 
L 1159 2956 
Q 1341 3275 1631 3429 
Q 1922 3584 2338 3584 
Q 2397 3584 2469 3576 
Q 2541 3569 2628 3553 
L 2631 2963 
z
" transform="scale(0.015625)"/>
       <path id="DejaVuSans-6d" d="M 3328 2828 
Q 3544 3216 3844 3400 
Q 4144 3584 4550 3584 
Q 5097 3584 5394 3201 
Q 5691 2819 5691 2113 
L 5691 0 
L 5113 0 
L 5113 2094 
Q 5113 2597 4934 2840 
Q 4756 3084 4391 3084 
Q 3944 3084 3684 2787 
Q 3425 2491 3425 1978 
L 3425 0 
L 2847 0 
L 2847 2094 
Q 2847 2600 2669 2842 
Q 2491 3084 2119 3084 
Q 1678 3084 1418 2786 
Q 1159 2488 1159 1978 
L 1159 0 
L 581 0 
L 581 3500 
L 1159 3500 
L 1159 2956 
Q 1356 3278 1631 3431 
Q 1906 3584 2284 3584 
Q 2666 3584 2933 3390 
Q 3200 3197 3328 2828 
z
" transform="scale(0.015625)"/>
       <path id="DejaVuSans-6e" d="M 3513 2113 
L 3513 0 
L 2938 0 
L 2938 2094 
Q 2938 2591 2744 2837 
Q 2550 3084 2163 3084 
Q 1697 3084 1428 2787 
Q 1159 2491 1159 1978 
L 1159 0 
L 581 0 
L 581 3500 
L 1159 3500 
L 1159 2956 
Q 1366 3272 1645 3428 
Q 1925 3584 2291 3584 
Q 2894 3584 3203 3211 
Q 3513 2838 3513 2113 
z
" transform="scale(0.015625)"/>
       <path id="DejaVuSans-20" transform="scale(0.015625)"/>
       <path id="DejaVuSans-43" d="M 4122 4306 
L 4122 3641 
Q 3803 3938 3442 4084 
Q 3081 4231 2675 4231 
Q 1875 4231 1450 3742 
Q 1025 3253 1025 2328 
Q 1025 1406 1450 917 
Q 1875 428 2675 428 
Q 3081 428 3442 575 
Q 3803 722 4122 1019 
L 4122 359 
Q 3791 134 3420 21 
Q 3050 -91 2638 -91 
Q 1578 -91 968 557 
Q 359 1206 359 2328 
Q 359 3453 968 4101 
Q 1578 4750 2638 4750 
Q 3056 4750 3426 4639 
Q 3797 4528 4122 4306 
z
" transform="scale(0.015625)"/>
       <path id="DejaVuSans-6c" d="M 603 4863 
L 1178 4863 
L 1178 0 
L 603 0 
L 603 4863 
z
" transform="scale(0.015625)"/>
       <path id="DejaVuSans-74" d="M 1172 4494 
L 1172 3500 
L 2356 3500 
L 2356 3053 
L 1172 3053 
L 1172 1153 
Q 1172 725 1289 603 
Q 1406 481 1766 481 
L 2356 481 
L 2356 0 
L 1766 0 
Q 1100 0 847 248 
Q 594 497 594 1153 
L 594 3053 
L 172 3053 
L 172 3500 
L 594 3500 
L 594 4494 
L 1172 4494 
z
" transform="scale(0.015625)"/>
       <path id="DejaVuSans-69" d="M 603 3500 
L 1178 3500 
L 1178 0 
L 603 0 
L 603 3500 
z
M 603 4863 
L 1178 4863 
L 1178 4134 
L 603 4134 
L 603 4863 
z
" transform="scale(0.015625)"/>
      </defs>
      <use xlink:href="#DejaVuSans-53"/>
      <use xlink:href="#DejaVuSans-70" x="63.476562"/>
      <use xlink:href="#DejaVuSans-65" x="126.953125"/>
      <use xlink:href="#DejaVuSans-61" x="188.476562"/>
      <use xlink:href="#DejaVuSans-72" x="249.755859"/>
      <use xlink:href="#DejaVuSans-6d" x="289.119141"/>
      <use xlink:href="#DejaVuSans-61" x="386.53125"/>
      <use xlink:href="#DejaVuSans-6e" x="447.810547"/>
      <use xlink:href="#DejaVuSans-20" x="511.189453"/>
      <use xlink:href="#DejaVuSans-43" x="542.976562"/>
      <use xlink:href="#DejaVuSans-6f" x="612.800781"/>
      <use xlink:href="#DejaVuSans-72" x="673.982422"/>
      <use xlink:href="#DejaVuSans-72" x="713.345703"/>
      <use xlink:href="#DejaVuSans-65" x="752.208984"/>
      <use xlink:href="#DejaVuSans-6c" x="813.732422"/>
      <use xlink:href="#DejaVuSans-61" x="841.515625"/>
      <use xlink:href="#DejaVuSans-74" x="902.794922"/>
      <use xlink:href="#DejaVuSans-69" x="942.003906"/>
      <use xlink:href="#DejaVuSans-6f" x="969.787109"/>
      <use xlink:href="#DejaVuSans-6e" x="1030.96875"/>
     </g>
    </g>
   </g>
   <g id="line2d_13">
    <path d="M 69.758636 196.87022 
L 75.662391 195.773629 
L 81.566146 206.863699 
L 87.469901 196.806151 
L 93.373656 195.432682 
L 99.277411 189.420673 
L 105.181166 194.946643 
L 111.084921 187.866038 
L 116.988676 210.210349 
L 122.892431 204.448226 
L 128.796186 205.903514 
L 140.603696 212.935432 
L 152.411206 217.491142 
L 164.218715 215.755691 
L 176.026225 221.227001 
L 187.833735 218.617597 
L 199.641245 226.762957 
L 211.448755 219.487669 
L 223.256265 208.0641 
L 235.063775 215.637916 
L 246.871285 212.362434 
L 258.678794 204.30686 
L 270.486304 218.111236 
L 282.293814 204.010281 
L 294.101324 211.243994 
L 305.908834 204.421791 
L 317.716344 219.001214 
L 329.523854 208.327878 
L 341.331364 210.876592 
" clip-path="url(#p73a502d7c9)" style="fill: none; stroke: #0000ff; stroke-width: 1.5; stroke-linecap: square"/>
   </g>
   <g id="line2d_14">
    <path d="M 69.758636 146.970402 
L 75.662391 143.033873 
L 81.566146 136.925537 
L 87.469901 121.749231 
L 93.373656 142.199433 
L 99.277411 151.29365 
L 105.181166 151.882237 
L 111.084921 161.300688 
L 116.988676 162.177375 
L 122.892431 160.956037 
L 128.796186 181.689471 
L 140.603696 171.458049 
L 152.411206 156.42858 
L 164.218715 162.000819 
L 176.026225 171.999596 
L 187.833735 173.415445 
L 199.641245 176.150307 
L 211.448755 173.898891 
L 223.256265 165.571454 
L 235.063775 165.520699 
L 246.871285 177.240842 
L 258.678794 173.094217 
L 270.486304 185.813759 
L 282.293814 189.787579 
L 294.101324 203.817999 
L 305.908834 204.586233 
L 317.716344 208.418837 
L 329.523854 205.456674 
L 341.331364 224.255611 
" clip-path="url(#p73a502d7c9)" style="fill: none; stroke-dasharray: 5.55,2.4; stroke-dashoffset: 0; stroke: #008000; stroke-width: 1.5"/>
   </g>
   <g id="line2d_15">
    <path d="M 69.758636 42.695962 
L 75.662391 42.695962 
L 81.566146 42.695962 
L 87.469901 42.695962 
L 93.373656 42.695962 
L 99.277411 42.695962 
L 105.181166 42.695962 
L 111.084921 42.695962 
L 116.988676 42.695962 
L 122.892431 42.695962 
L 128.796186 42.695962 
L 140.603696 42.695962 
L 152.411206 42.695962 
L 164.218715 42.695962 
L 176.026225 42.695962 
L 187.833735 42.695962 
L 199.641245 42.695962 
L 211.448755 42.695962 
L 223.256265 42.695962 
L 235.063775 42.695962 
L 246.871285 42.695962 
L 258.678794 42.695962 
L 270.486304 42.695962 
L 282.293814 42.695962 
L 294.101324 42.695962 
L 305.908834 42.695962 
L 317.716344 42.695962 
L 329.523854 42.695962 
L 341.331364 42.695962 
" clip-path="url(#p73a502d7c9)" style="fill: none; stroke-dasharray: 9.6,2.4,1.5,2.4; stroke-dashoffset: 0; stroke: #ff0000; stroke-width: 1.5"/>
   </g>
   <g id="line2d_16">
    <path d="M 69.758636 141.629526 
L 75.662391 148.046155 
L 81.566146 134.824106 
L 87.469901 125.905982 
L 93.373656 141.54661 
L 99.277411 157.605701 
L 105.181166 157.13219 
L 111.084921 162.504333 
L 116.988676 178.4541 
L 122.892431 159.715854 
L 128.796186 167.014453 
L 140.603696 155.020237 
L 152.411206 146.192412 
L 164.218715 146.142192 
L 176.026225 157.522245 
L 187.833735 156.926606 
L 199.641245 164.265299 
L 211.448755 166.506998 
L 223.256265 155.95222 
L 235.063775 151.229033 
L 246.871285 159.800111 
L 258.678794 163.502374 
L 270.486304 157.713552 
L 282.293814 172.104975 
L 294.101324 169.015869 
L 305.908834 179.014332 
L 317.716344 183.761132 
L 329.523854 178.8973 
L 341.331364 191.292411 
" clip-path="url(#p73a502d7c9)" style="fill: none; stroke-dasharray: 1.5,2.475; stroke-dashoffset: 0; stroke: #00bfbf; stroke-width: 1.5"/>
   </g>
   <g id="line2d_17">
    <path d="M 69.758636 91.46891 
L 75.662391 112.849765 
L 81.566146 125.655718 
L 87.469901 134.553851 
L 93.373656 156.160016 
L 99.277411 167.437745 
L 105.181166 165.684929 
L 111.084921 168.958187 
L 116.988676 166.6161 
L 122.892431 159.086081 
L 128.796186 160.636977 
L 140.603696 156.098941 
L 152.411206 151.834016 
L 164.218715 152.489548 
L 176.026225 155.51822 
L 187.833735 140.186371 
L 199.641245 150.120288 
L 211.448755 153.985997 
L 223.256265 144.3868 
L 235.063775 152.022805 
L 246.871285 153.280261 
L 258.678794 156.463687 
L 270.486304 148.654224 
L 282.293814 135.848975 
L 294.101324 130.65859 
L 305.908834 123.034199 
L 317.716344 120.864599 
L 329.523854 120.027873 
L 341.331364 118.919606 
" clip-path="url(#p73a502d7c9)" style="fill: none; stroke: #bf00bf; stroke-width: 1.5; stroke-linecap: square"/>
   </g>
   <g id="line2d_18">
    <path d="M 69.758636 290.329091 
L 75.662391 179.298071 
L 81.566146 174.038933 
L 87.469901 182.023115 
L 93.373656 184.336038 
L 99.277411 182.169236 
L 105.181166 184.811881 
L 111.084921 185.745629 
L 116.988676 184.390288 
L 122.892431 179.610056 
L 128.796186 184.453046 
L 140.603696 177.415378 
L 152.411206 188.808556 
L 164.218715 195.176155 
L 176.026225 187.187539 
L 187.833735 188.664405 
L 199.641245 193.536691 
L 211.448755 186.865895 
L 223.256265 190.646841 
L 235.063775 192.788032 
L 246.871285 184.253942 
L 258.678794 191.522262 
L 270.486304 185.086921 
L 282.293814 190.598103 
L 294.101324 188.193374 
L 305.908834 191.206125 
L 317.716344 197.103043 
L 329.523854 193.732025 
L 341.331364 186.761173 
" clip-path="url(#p73a502d7c9)" style="fill: none; stroke-dasharray: 5.55,2.4; stroke-dashoffset: 0; stroke: #bfbf00; stroke-width: 1.5"/>
   </g>
   <g id="line2d_19">
    <path d="M 69.758636 208.851616 
L 75.662391 183.180466 
L 81.566146 187.848358 
L 87.469901 184.883599 
L 93.373656 196.221668 
L 99.277411 198.327277 
L 105.181166 200.154535 
L 111.084921 193.470151 
L 116.988676 193.158838 
L 122.892431 203.159299 
L 128.796186 218.692992 
L 140.603696 219.618298 
L 152.411206 206.795017 
L 164.218715 208.745989 
L 176.026225 209.346202 
L 187.833735 210.374476 
L 199.641245 227.453092 
L 211.448755 231.541371 
L 223.256265 221.702366 
L 235.063775 228.468384 
L 246.871285 234.797728 
L 258.678794 242.477791 
L 270.486304 235.260441 
L 282.293814 242.293232 
L 294.101324 224.44223 
L 305.908834 228.1429 
L 317.716344 244.760307 
L 329.523854 240.978136 
L 341.331364 229.952375 
" clip-path="url(#p73a502d7c9)" style="fill: none; stroke-dasharray: 9.6,2.4,1.5,2.4; stroke-dashoffset: 0; stroke: #000000; stroke-width: 1.5"/>
   </g>
   <g id="line2d_20">
    <path d="M 69.758636 40.886301 
L 75.662391 48.391009 
L 81.566146 54.806647 
L 87.469901 59.486875 
L 93.373656 62.499654 
L 99.277411 64.154837 
L 105.181166 65.259726 
L 111.084921 66.03615 
L 116.988676 66.253177 
L 122.892431 66.058904 
L 128.796186 65.513217 
L 140.603696 63.709075 
L 152.411206 63.123733 
L 164.218715 64.022704 
L 176.026225 65.00477 
L 187.833735 65.427242 
L 199.641245 65.825385 
L 211.448755 65.782485 
L 223.256265 65.850957 
L 235.063775 65.879969 
L 246.871285 65.807641 
L 258.678794 67.075012 
L 270.486304 68.134957 
L 282.293814 68.880877 
L 294.101324 69.399122 
L 305.908834 69.798995 
L 317.716344 70.039441 
L 329.523854 70.204819 
L 341.331364 70.33191 
" clip-path="url(#p73a502d7c9)" style="fill: none; stroke-dasharray: 1.5,2.475; stroke-dashoffset: 0; stroke: #e377c2; stroke-width: 1.5"/>
   </g>
   <g id="line2d_21">
    <path d="M 69.758636 172.649594 
L 75.662391 175.229655 
L 81.566146 164.8523 
L 87.469901 180.006143 
L 93.373656 178.722361 
L 99.277411 164.052796 
L 105.181166 167.603188 
L 111.084921 176.999382 
L 116.988676 187.798344 
L 122.892431 181.694769 
L 128.796186 172.803851 
L 140.603696 203.195809 
L 152.411206 194.920379 
L 164.218715 189.460804 
L 176.026225 188.966591 
L 187.833735 173.433399 
L 199.641245 175.761252 
L 211.448755 180.348466 
L 223.256265 174.556382 
L 235.063775 197.114677 
L 246.871285 200.834586 
L 258.678794 177.675589 
L 270.486304 177.555354 
L 282.293814 170.432927 
L 294.101324 192.977504 
L 305.908834 180.772702 
L 317.716344 175.469265 
L 329.523854 192.364487 
L 341.331364 181.314215 
" clip-path="url(#p73a502d7c9)" style="fill: none; stroke: #ff7f0e; stroke-width: 1.5; stroke-linecap: square"/>
   </g>
   <g id="line2d_22">
    <path d="M 69.758636 65.932893 
L 75.662391 65.932893 
L 81.566146 65.932893 
L 87.469901 65.932893 
L 93.373656 65.932893 
L 99.277411 65.932893 
L 105.181166 65.932893 
L 111.084921 65.932893 
L 116.988676 65.932893 
L 122.892431 65.932893 
L 128.796186 65.932893 
L 140.603696 65.932893 
L 152.411206 65.932893 
L 164.218715 65.932893 
L 176.026225 65.932893 
L 187.833735 65.932893 
L 199.641245 65.932893 
L 211.448755 65.932893 
L 223.256265 65.932893 
L 235.063775 65.932893 
L 246.871285 65.932893 
L 258.678794 65.932893 
L 270.486304 65.932893 
L 282.293814 65.932893 
L 294.101324 65.932893 
L 305.908834 65.932893 
L 317.716344 65.932893 
L 329.523854 65.932893 
L 341.331364 65.932893 
" clip-path="url(#p73a502d7c9)" style="fill: none; stroke-dasharray: 5.55,2.4; stroke-dashoffset: 0; stroke: #1f77b4; stroke-width: 1.5"/>
   </g>
   <g id="line2d_23">
    <path d="M 69.758636 145.130585 
L 75.662391 210.544891 
L 81.566146 198.761095 
L 87.469901 211.011429 
L 93.373656 209.583434 
L 99.277411 192.584888 
L 105.181166 185.905269 
L 111.084921 188.50328 
L 116.988676 176.050397 
L 122.892431 195.473114 
L 128.796186 199.891324 
L 140.603696 196.439364 
L 152.411206 203.862609 
L 164.218715 211.95793 
L 176.026225 208.727265 
L 187.833735 189.37278 
L 199.641245 193.416721 
L 211.448755 201.383994 
L 223.256265 174.468261 
L 235.063775 189.455836 
L 246.871285 187.932063 
L 258.678794 181.508375 
L 270.486304 197.180327 
L 282.293814 186.384575 
L 294.101324 188.394115 
L 305.908834 180.191647 
L 317.716344 170.840445 
L 329.523854 160.362174 
L 341.331364 165.295392 
" clip-path="url(#p73a502d7c9)" style="fill: none; stroke-dasharray: 9.6,2.4,1.5,2.4; stroke-dashoffset: 0; stroke: #2ca02c; stroke-width: 1.5"/>
   </g>
   <g id="line2d_24">
    <path d="M 69.758636 145.601022 
L 75.662391 179.575571 
L 81.566146 156.665501 
L 87.469901 133.249864 
L 93.373656 148.072334 
L 99.277411 154.967997 
L 105.181166 168.720384 
L 111.084921 170.875051 
L 116.988676 168.739228 
L 122.892431 187.253983 
L 128.796186 179.047084 
L 140.603696 172.233656 
L 152.411206 166.092662 
L 164.218715 174.479192 
L 176.026225 170.773415 
L 187.833735 173.409898 
L 199.641245 170.484821 
L 211.448755 166.563032 
L 223.256265 172.118778 
L 235.063775 161.655336 
L 246.871285 157.204242 
L 258.678794 160.326399 
L 270.486304 164.542492 
L 282.293814 171.902625 
L 294.101324 184.081261 
L 305.908834 183.190619 
L 317.716344 189.459418 
L 329.523854 191.02249 
L 341.331364 210.655051 
" clip-path="url(#p73a502d7c9)" style="fill: none; stroke-dasharray: 1.5,2.475; stroke-dashoffset: 0; stroke: #9467bd; stroke-width: 1.5"/>
   </g>
   <g id="line2d_25">
    <path d="M 69.758636 34.993966 
L 75.662391 31.576507 
L 81.566146 29.578973 
L 87.469901 26.91656 
L 93.373656 25.350365 
L 99.277411 24.437497 
L 105.181166 24.477941 
L 111.084921 24.146937 
L 116.988676 24.112969 
L 122.892431 24.110909 
L 128.796186 24.160503 
L 140.603696 27.36687 
L 152.411206 27.600277 
L 164.218715 29.17645 
L 176.026225 29.116688 
L 187.833735 28.244669 
L 199.641245 27.123198 
L 211.448755 26.186165 
L 223.256265 26.091546 
L 235.063775 25.844927 
L 246.871285 25.50461 
L 258.678794 25.669012 
L 270.486304 25.72964 
L 282.293814 25.759838 
L 294.101324 25.8163 
L 305.908834 25.804262 
L 317.716344 25.992553 
L 329.523854 26.109254 
L 341.331364 26.170338 
" clip-path="url(#p73a502d7c9)" style="fill: none; stroke: #008080; stroke-width: 1.5; stroke-linecap: square"/>
   </g>
   <g id="line2d_26">
    <path d="M 69.758636 30.06427 
L 75.662391 30.105056 
L 81.566146 29.549227 
L 87.469901 29.107153 
L 93.373656 29.25244 
L 99.277411 27.86584 
L 105.181166 27.777408 
L 111.084921 27.034237 
L 116.988676 27.313078 
L 122.892431 27.275414 
L 128.796186 26.436811 
L 140.603696 27.218404 
L 152.411206 27.629883 
L 164.218715 27.518344 
L 176.026225 27.865257 
L 187.833735 28.066216 
L 199.641245 26.754269 
L 211.448755 27.070619 
L 223.256265 26.523672 
L 235.063775 26.895427 
L 246.871285 26.986331 
L 258.678794 27.117558 
L 270.486304 27.122906 
L 282.293814 27.127462 
L 294.101324 27.816328 
L 305.908834 28.218199 
L 317.716344 27.809639 
L 329.523854 27.706262 
L 341.331364 28.233953 
" clip-path="url(#p73a502d7c9)" style="fill: none; stroke-dasharray: 5.55,2.4; stroke-dashoffset: 0; stroke: #8c564b; stroke-width: 1.5"/>
   </g>
   <g id="patch_3">
    <path d="M 56.18 303.64 
L 56.18 10.8 
" style="fill: none; stroke: #000000; stroke-width: 0.8; stroke-linejoin: miter; stroke-linecap: square"/>
   </g>
   <g id="patch_4">
    <path d="M 354.91 303.64 
L 354.91 10.8 
" style="fill: none; stroke: #000000; stroke-width: 0.8; stroke-linejoin: miter; stroke-linecap: square"/>
   </g>
   <g id="patch_5">
    <path d="M 56.18 303.64 
L 354.91 303.64 
" style="fill: none; stroke: #000000; stroke-width: 0.8; stroke-linejoin: miter; stroke-linecap: square"/>
   </g>
   <g id="patch_6">
    <path d="M 56.18 10.8 
L 354.91 10.8 
" style="fill: none; stroke: #000000; stroke-width: 0.8; stroke-linejoin: miter; stroke-linecap: square"/>
   </g>
   <g id="legend_1">
    <g id="patch_7">
     <path d="M 361.91 262.023125 
L 447.97875 262.023125 
Q 449.97875 262.023125 449.97875 260.023125 
L 449.97875 54.416875 
Q 449.97875 52.416875 447.97875 52.416875 
L 361.91 52.416875 
Q 359.91 52.416875 359.91 54.416875 
L 359.91 260.023125 
Q 359.91 262.023125 361.91 262.023125 
z
" style="fill: #ffffff; opacity: 0.8; stroke: #cccccc; stroke-linejoin: miter"/>
    </g>
    <g id="line2d_27">
     <path d="M 363.91 60.515312 
L 373.91 60.515312 
L 383.91 60.515312 
" style="fill: none; stroke: #0000ff; stroke-width: 1.5; stroke-linecap: square"/>
    </g>
    <g id="text_15">
     <!-- epe_nas -->
     <g transform="translate(391.91 64.015312) scale(0.1 -0.1)">
      <defs>
       <path id="DejaVuSans-5f" d="M 3263 -1063 
L 3263 -1509 
L -63 -1509 
L -63 -1063 
L 3263 -1063 
z
" transform="scale(0.015625)"/>
       <path id="DejaVuSans-73" d="M 2834 3397 
L 2834 2853 
Q 2591 2978 2328 3040 
Q 2066 3103 1784 3103 
Q 1356 3103 1142 2972 
Q 928 2841 928 2578 
Q 928 2378 1081 2264 
Q 1234 2150 1697 2047 
L 1894 2003 
Q 2506 1872 2764 1633 
Q 3022 1394 3022 966 
Q 3022 478 2636 193 
Q 2250 -91 1575 -91 
Q 1294 -91 989 -36 
Q 684 19 347 128 
L 347 722 
Q 666 556 975 473 
Q 1284 391 1588 391 
Q 1994 391 2212 530 
Q 2431 669 2431 922 
Q 2431 1156 2273 1281 
Q 2116 1406 1581 1522 
L 1381 1569 
Q 847 1681 609 1914 
Q 372 2147 372 2553 
Q 372 3047 722 3315 
Q 1072 3584 1716 3584 
Q 2034 3584 2315 3537 
Q 2597 3491 2834 3397 
z
" transform="scale(0.015625)"/>
      </defs>
      <use xlink:href="#DejaVuSans-65"/>
      <use xlink:href="#DejaVuSans-70" x="61.523438"/>
      <use xlink:href="#DejaVuSans-65" x="125"/>
      <use xlink:href="#DejaVuSans-5f" x="186.523438"/>
      <use xlink:href="#DejaVuSans-6e" x="236.523438"/>
      <use xlink:href="#DejaVuSans-61" x="299.902344"/>
      <use xlink:href="#DejaVuSans-73" x="361.181641"/>
     </g>
    </g>
    <g id="line2d_28">
     <path d="M 363.91 75.471563 
L 373.91 75.471563 
L 383.91 75.471563 
" style="fill: none; stroke-dasharray: 5.55,2.4; stroke-dashoffset: 0; stroke: #008000; stroke-width: 1.5"/>
    </g>
    <g id="text_16">
     <!-- fisher -->
     <g transform="translate(391.91 78.971563) scale(0.1 -0.1)">
      <defs>
       <path id="DejaVuSans-66" d="M 2375 4863 
L 2375 4384 
L 1825 4384 
Q 1516 4384 1395 4259 
Q 1275 4134 1275 3809 
L 1275 3500 
L 2222 3500 
L 2222 3053 
L 1275 3053 
L 1275 0 
L 697 0 
L 697 3053 
L 147 3053 
L 147 3500 
L 697 3500 
L 697 3744 
Q 697 4328 969 4595 
Q 1241 4863 1831 4863 
L 2375 4863 
z
" transform="scale(0.015625)"/>
      </defs>
      <use xlink:href="#DejaVuSans-66"/>
      <use xlink:href="#DejaVuSans-69" x="35.205078"/>
      <use xlink:href="#DejaVuSans-73" x="62.988281"/>
      <use xlink:href="#DejaVuSans-68" x="115.087891"/>
      <use xlink:href="#DejaVuSans-65" x="178.466797"/>
      <use xlink:href="#DejaVuSans-72" x="239.990234"/>
     </g>
    </g>
    <g id="line2d_29">
     <path d="M 363.91 90.149687 
L 373.91 90.149687 
L 383.91 90.149687 
" style="fill: none; stroke-dasharray: 9.6,2.4,1.5,2.4; stroke-dashoffset: 0; stroke: #ff0000; stroke-width: 1.5"/>
    </g>
    <g id="text_17">
     <!-- flops -->
     <g transform="translate(391.91 93.649687) scale(0.1 -0.1)">
      <use xlink:href="#DejaVuSans-66"/>
      <use xlink:href="#DejaVuSans-6c" x="35.205078"/>
      <use xlink:href="#DejaVuSans-6f" x="62.988281"/>
      <use xlink:href="#DejaVuSans-70" x="124.169922"/>
      <use xlink:href="#DejaVuSans-73" x="187.646484"/>
     </g>
    </g>
    <g id="line2d_30">
     <path d="M 363.91 104.827813 
L 373.91 104.827813 
L 383.91 104.827813 
" style="fill: none; stroke-dasharray: 1.5,2.475; stroke-dashoffset: 0; stroke: #00bfbf; stroke-width: 1.5"/>
    </g>
    <g id="text_18">
     <!-- grad_norm -->
     <g transform="translate(391.91 108.327813) scale(0.1 -0.1)">
      <defs>
       <path id="DejaVuSans-67" d="M 2906 1791 
Q 2906 2416 2648 2759 
Q 2391 3103 1925 3103 
Q 1463 3103 1205 2759 
Q 947 2416 947 1791 
Q 947 1169 1205 825 
Q 1463 481 1925 481 
Q 2391 481 2648 825 
Q 2906 1169 2906 1791 
z
M 3481 434 
Q 3481 -459 3084 -895 
Q 2688 -1331 1869 -1331 
Q 1566 -1331 1297 -1286 
Q 1028 -1241 775 -1147 
L 775 -588 
Q 1028 -725 1275 -790 
Q 1522 -856 1778 -856 
Q 2344 -856 2625 -561 
Q 2906 -266 2906 331 
L 2906 616 
Q 2728 306 2450 153 
Q 2172 0 1784 0 
Q 1141 0 747 490 
Q 353 981 353 1791 
Q 353 2603 747 3093 
Q 1141 3584 1784 3584 
Q 2172 3584 2450 3431 
Q 2728 3278 2906 2969 
L 2906 3500 
L 3481 3500 
L 3481 434 
z
" transform="scale(0.015625)"/>
       <path id="DejaVuSans-64" d="M 2906 2969 
L 2906 4863 
L 3481 4863 
L 3481 0 
L 2906 0 
L 2906 525 
Q 2725 213 2448 61 
Q 2172 -91 1784 -91 
Q 1150 -91 751 415 
Q 353 922 353 1747 
Q 353 2572 751 3078 
Q 1150 3584 1784 3584 
Q 2172 3584 2448 3432 
Q 2725 3281 2906 2969 
z
M 947 1747 
Q 947 1113 1208 752 
Q 1469 391 1925 391 
Q 2381 391 2643 752 
Q 2906 1113 2906 1747 
Q 2906 2381 2643 2742 
Q 2381 3103 1925 3103 
Q 1469 3103 1208 2742 
Q 947 2381 947 1747 
z
" transform="scale(0.015625)"/>
      </defs>
      <use xlink:href="#DejaVuSans-67"/>
      <use xlink:href="#DejaVuSans-72" x="63.476562"/>
      <use xlink:href="#DejaVuSans-61" x="104.589844"/>
      <use xlink:href="#DejaVuSans-64" x="165.869141"/>
      <use xlink:href="#DejaVuSans-5f" x="229.345703"/>
      <use xlink:href="#DejaVuSans-6e" x="279.345703"/>
      <use xlink:href="#DejaVuSans-6f" x="342.724609"/>
      <use xlink:href="#DejaVuSans-72" x="403.90625"/>
      <use xlink:href="#DejaVuSans-6d" x="443.269531"/>
     </g>
    </g>
    <g id="line2d_31">
     <path d="M 363.91 119.784063 
L 373.91 119.784063 
L 383.91 119.784063 
" style="fill: none; stroke: #bf00bf; stroke-width: 1.5; stroke-linecap: square"/>
    </g>
    <g id="text_19">
     <!-- grad_sign -->
     <g transform="translate(391.91 123.284063) scale(0.1 -0.1)">
      <use xlink:href="#DejaVuSans-67"/>
      <use xlink:href="#DejaVuSans-72" x="63.476562"/>
      <use xlink:href="#DejaVuSans-61" x="104.589844"/>
      <use xlink:href="#DejaVuSans-64" x="165.869141"/>
      <use xlink:href="#DejaVuSans-5f" x="229.345703"/>
      <use xlink:href="#DejaVuSans-73" x="279.345703"/>
      <use xlink:href="#DejaVuSans-69" x="331.445312"/>
      <use xlink:href="#DejaVuSans-67" x="359.228516"/>
      <use xlink:href="#DejaVuSans-6e" x="422.705078"/>
     </g>
    </g>
    <g id="line2d_32">
     <path d="M 363.91 134.740313 
L 373.91 134.740313 
L 383.91 134.740313 
" style="fill: none; stroke-dasharray: 5.55,2.4; stroke-dashoffset: 0; stroke: #bfbf00; stroke-width: 1.5"/>
    </g>
    <g id="text_20">
     <!-- grasp -->
     <g transform="translate(391.91 138.240313) scale(0.1 -0.1)">
      <use xlink:href="#DejaVuSans-67"/>
      <use xlink:href="#DejaVuSans-72" x="63.476562"/>
      <use xlink:href="#DejaVuSans-61" x="104.589844"/>
      <use xlink:href="#DejaVuSans-73" x="165.869141"/>
      <use xlink:href="#DejaVuSans-70" x="217.96875"/>
     </g>
    </g>
    <g id="line2d_33">
     <path d="M 363.91 149.418437 
L 373.91 149.418437 
L 383.91 149.418437 
" style="fill: none; stroke-dasharray: 9.6,2.4,1.5,2.4; stroke-dashoffset: 0; stroke: #000000; stroke-width: 1.5"/>
    </g>
    <g id="text_21">
     <!-- jacov -->
     <g transform="translate(391.91 152.918437) scale(0.1 -0.1)">
      <defs>
       <path id="DejaVuSans-6a" d="M 603 3500 
L 1178 3500 
L 1178 -63 
Q 1178 -731 923 -1031 
Q 669 -1331 103 -1331 
L -116 -1331 
L -116 -844 
L 38 -844 
Q 366 -844 484 -692 
Q 603 -541 603 -63 
L 603 3500 
z
M 603 4863 
L 1178 4863 
L 1178 4134 
L 603 4134 
L 603 4863 
z
" transform="scale(0.015625)"/>
       <path id="DejaVuSans-76" d="M 191 3500 
L 800 3500 
L 1894 563 
L 2988 3500 
L 3597 3500 
L 2284 0 
L 1503 0 
L 191 3500 
z
" transform="scale(0.015625)"/>
      </defs>
      <use xlink:href="#DejaVuSans-6a"/>
      <use xlink:href="#DejaVuSans-61" x="27.783203"/>
      <use xlink:href="#DejaVuSans-63" x="89.0625"/>
      <use xlink:href="#DejaVuSans-6f" x="144.042969"/>
      <use xlink:href="#DejaVuSans-76" x="205.224609"/>
     </g>
    </g>
    <g id="line2d_34">
     <path d="M 363.91 164.096563 
L 373.91 164.096563 
L 383.91 164.096563 
" style="fill: none; stroke-dasharray: 1.5,2.475; stroke-dashoffset: 0; stroke: #e377c2; stroke-width: 1.5"/>
    </g>
    <g id="text_22">
     <!-- l2_norm -->
     <g transform="translate(391.91 167.596563) scale(0.1 -0.1)">
      <use xlink:href="#DejaVuSans-6c"/>
      <use xlink:href="#DejaVuSans-32" x="27.783203"/>
      <use xlink:href="#DejaVuSans-5f" x="91.40625"/>
      <use xlink:href="#DejaVuSans-6e" x="141.40625"/>
      <use xlink:href="#DejaVuSans-6f" x="204.785156"/>
      <use xlink:href="#DejaVuSans-72" x="265.966797"/>
      <use xlink:href="#DejaVuSans-6d" x="305.330078"/>
     </g>
    </g>
    <g id="line2d_35">
     <path d="M 363.91 179.052812 
L 373.91 179.052812 
L 383.91 179.052812 
" style="fill: none; stroke: #ff7f0e; stroke-width: 1.5; stroke-linecap: square"/>
    </g>
    <g id="text_23">
     <!-- nwot -->
     <g transform="translate(391.91 182.552812) scale(0.1 -0.1)">
      <defs>
       <path id="DejaVuSans-77" d="M 269 3500 
L 844 3500 
L 1563 769 
L 2278 3500 
L 2956 3500 
L 3675 769 
L 4391 3500 
L 4966 3500 
L 4050 0 
L 3372 0 
L 2619 2869 
L 1863 0 
L 1184 0 
L 269 3500 
z
" transform="scale(0.015625)"/>
      </defs>
      <use xlink:href="#DejaVuSans-6e"/>
      <use xlink:href="#DejaVuSans-77" x="63.378906"/>
      <use xlink:href="#DejaVuSans-6f" x="145.166016"/>
      <use xlink:href="#DejaVuSans-74" x="206.347656"/>
     </g>
    </g>
    <g id="line2d_36">
     <path d="M 363.91 193.730937 
L 373.91 193.730937 
L 383.91 193.730937 
" style="fill: none; stroke-dasharray: 5.55,2.4; stroke-dashoffset: 0; stroke: #1f77b4; stroke-width: 1.5"/>
    </g>
    <g id="text_24">
     <!-- params -->
     <g transform="translate(391.91 197.230937) scale(0.1 -0.1)">
      <use xlink:href="#DejaVuSans-70"/>
      <use xlink:href="#DejaVuSans-61" x="63.476562"/>
      <use xlink:href="#DejaVuSans-72" x="124.755859"/>
      <use xlink:href="#DejaVuSans-61" x="165.869141"/>
      <use xlink:href="#DejaVuSans-6d" x="227.148438"/>
      <use xlink:href="#DejaVuSans-73" x="324.560547"/>
     </g>
    </g>
    <g id="line2d_37">
     <path d="M 363.91 208.409062 
L 373.91 208.409062 
L 383.91 208.409062 
" style="fill: none; stroke-dasharray: 9.6,2.4,1.5,2.4; stroke-dashoffset: 0; stroke: #2ca02c; stroke-width: 1.5"/>
    </g>
    <g id="text_25">
     <!-- plain -->
     <g transform="translate(391.91 211.909062) scale(0.1 -0.1)">
      <use xlink:href="#DejaVuSans-70"/>
      <use xlink:href="#DejaVuSans-6c" x="63.476562"/>
      <use xlink:href="#DejaVuSans-61" x="91.259766"/>
      <use xlink:href="#DejaVuSans-69" x="152.539062"/>
      <use xlink:href="#DejaVuSans-6e" x="180.322266"/>
     </g>
    </g>
    <g id="line2d_38">
     <path d="M 363.91 223.087187 
L 373.91 223.087187 
L 383.91 223.087187 
" style="fill: none; stroke-dasharray: 1.5,2.475; stroke-dashoffset: 0; stroke: #9467bd; stroke-width: 1.5"/>
    </g>
    <g id="text_26">
     <!-- snip -->
     <g transform="translate(391.91 226.587187) scale(0.1 -0.1)">
      <use xlink:href="#DejaVuSans-73"/>
      <use xlink:href="#DejaVuSans-6e" x="52.099609"/>
      <use xlink:href="#DejaVuSans-69" x="115.478516"/>
      <use xlink:href="#DejaVuSans-70" x="143.261719"/>
     </g>
    </g>
    <g id="line2d_39">
     <path d="M 363.91 237.765312 
L 373.91 237.765312 
L 383.91 237.765312 
" style="fill: none; stroke: #008080; stroke-width: 1.5; stroke-linecap: square"/>
    </g>
    <g id="text_27">
     <!-- synflow -->
     <g transform="translate(391.91 241.265312) scale(0.1 -0.1)">
      <defs>
       <path id="DejaVuSans-79" d="M 2059 -325 
Q 1816 -950 1584 -1140 
Q 1353 -1331 966 -1331 
L 506 -1331 
L 506 -850 
L 844 -850 
Q 1081 -850 1212 -737 
Q 1344 -625 1503 -206 
L 1606 56 
L 191 3500 
L 800 3500 
L 1894 763 
L 2988 3500 
L 3597 3500 
L 2059 -325 
z
" transform="scale(0.015625)"/>
      </defs>
      <use xlink:href="#DejaVuSans-73"/>
      <use xlink:href="#DejaVuSans-79" x="52.099609"/>
      <use xlink:href="#DejaVuSans-6e" x="111.279297"/>
      <use xlink:href="#DejaVuSans-66" x="174.658203"/>
      <use xlink:href="#DejaVuSans-6c" x="209.863281"/>
      <use xlink:href="#DejaVuSans-6f" x="237.646484"/>
      <use xlink:href="#DejaVuSans-77" x="298.828125"/>
     </g>
    </g>
    <g id="line2d_40">
     <path d="M 363.91 252.443437 
L 373.91 252.443437 
L 383.91 252.443437 
" style="fill: none; stroke-dasharray: 5.55,2.4; stroke-dashoffset: 0; stroke: #8c564b; stroke-width: 1.5"/>
    </g>
    <g id="text_28">
     <!-- zen -->
     <g transform="translate(391.91 255.943437) scale(0.1 -0.1)">
      <defs>
       <path id="DejaVuSans-7a" d="M 353 3500 
L 3084 3500 
L 3084 2975 
L 922 459 
L 3084 459 
L 3084 0 
L 275 0 
L 275 525 
L 2438 3041 
L 353 3041 
L 353 3500 
z
" transform="scale(0.015625)"/>
      </defs>
      <use xlink:href="#DejaVuSans-7a"/>
      <use xlink:href="#DejaVuSans-65" x="52.490234"/>
      <use xlink:href="#DejaVuSans-6e" x="114.013672"/>
     </g>
    </g>
   </g>
  </g>
 </g>
 <defs>
  <clipPath id="p73a502d7c9">
   <rect x="56.18" y="10.8" width="298.73" height="292.84"/>
  </clipPath>
 </defs>
</svg>
